/* XPM */
static char *Exit1698083050[] = {
/* columns rows colors chars-per-pixel */
"32 32 74 1 ",
"  c #161A51",
". c #162160",
"X c #172261",
"o c #182468",
"O c #1E2879",
"+ c #C8D45D",
"@ c #1D2D82",
"# c #242D8A",
"$ c #223291",
"% c #23359A",
"& c #283B9F",
"* c #2939A8",
"= c #2A3FB5",
"- c #2C42BB",
"; c #2E44C4",
": c #2F4BCF",
"> c #2C55CB",
", c #314CD5",
"< c #2F59DE",
"1 c #2B62CE",
"2 c #2E64D9",
"3 c #2F64E1",
"4 c #2A75E2",
"5 c #2982D7",
"6 c #2481E2",
"7 c #2988E3",
"8 c #3F84E1",
"9 c #3085EA",
"0 c #2A95E2",
"q c #249FE5",
"w c #3CABE8",
"e c #2DB2E8",
"r c #28B2EF",
"t c #508ADB",
"y c #5C9BE5",
"u c #44A2E4",
"i c #4EA0E7",
"p c #5AACEC",
"a c #49B5EF",
"s c #65AFEB",
"d c #7FBDEA",
"f c #20C2EE",
"g c #52C8F4",
"h c #54D4FA",
"j c #6ACFEE",
"k c #78D0F5",
"l c #8BAAE8",
"z c #9ABBEE",
"x c #A8B8EC",
"c c #92C6ED",
"v c #9ECBED",
"b c #A8C6EB",
"n c #B0D7F1",
"m c #B9DBF1",
"M c #BCDCF5",
"N c #8FE5FC",
"B c #A9E8FA",
"V c #CEC3EB",
"C c #D4CAED",
"Z c #C4DEF1",
"A c #DED8F0",
"S c #C2ECF9",
"D c #D3E6F4",
"F c #DAEEF7",
"G c #C6F0FB",
"H c #EEE5F3",
"J c #F5EFF5",
"K c #E3F3F8",
"L c #ECF4F8",
"P c gray97",
"I c #F4F7F8",
"U c #F9F8F8",
"Y c #FBF9F8",
"T c #FAFAF8",
/* pixels */
"++++++++++++++++++++++++++++++++",
"++++++++++++++++++++++++++++++++",
"++++++++++++++++++++++++++++++++",
"++++++++++++++++++++++++++++++++",
"UUPUUPPUPPUUIUUIUUUPUUPPUPPUUPUU",
"UUPUUPPUPPUUUBNNFUUPUUPPUPPUUPUU",
"PPUPPUUPUUPIIBghhnUUPPUUPUUPPUPP",
"UUPUUPPUPPUULnu0fevIUUPPUPPUUPUU",
"UUPUUPPUPPUUZi4<4f0ZUUPPUPPUUPUU",
"PPUPPUUPUUILd4<,:qqdUPUUPUUPPUPP",
"PPUPPUUPUUPDwr2=*16iSIUUPUUPPUPP",
"UUPUUPPUPPUcf0=%$&>tNKUPUPPUUPUU",
"UUPUUPPUPUIjf>%@O@;4gFUPUPPUUPUU",
"PPUPPUUPUUIjq-@oo$;4iAUUPUUPPUPP",
"UUPUUPPUPUPl4*O  O-4sHUPUPPUUPUU",
"UUPUUPPUPUAi<*@  @-4lJUPUPPUUPUU",
"PPUPPUUPUUV8<*@.X@;9zUUUPUUPPUPP",
"PPUPPUUPUICy<;$.o$;9xUUUPUUPPUPP",
"UUPUUPPUUUMw3,$OO$>ebUPPUPPUUPUU",
"PPUPPUUPUUMj77-##*5emYYPPUUPPUPP",
"PPUPUUUPUUKByu>*$-0wKJPYPUUPPUPP",
"UUPUUIIUUILMutt:&:5zPPPPUPPUUPUU",
"UUPUUUIUIITTvte2,40DPPPPUPPUUPUU",
"PPUPUUUUIUTTIsgr60kKGPPUPUUPPUPP",
"PPUPPUUPUUPPUDlprakKIPUUPUUPPUPP",
"UUPUUPPUPPUUPULAxxAPUUPPUPPUUPUU",
"PPUPPUUPUUPPUPPUUUUUPPUUPUUPPUPP",
"++++++++++++++++++++++++++++++++",
"++++++++++++++++++++++++++++++++",
"++++++++++++++++++++++++++++++++",
"++++++++++++++++++++++++++++++++",
"++++++++++++++++++++++++++++++++"
};
