/* XPM */
static char *GRASS_ITEM1698082154[] = {
/* columns rows colors chars-per-pixel */
"32 32 97 2 ",
"   c black",
".  c #070703",
"X  c #0D0302",
"o  c #0C0D05",
"O  c #190503",
"+  c #2D0C0A",
"@  c #340A07",
"#  c #16210C",
"$  c #242611",
"%  c #323517",
"&  c #440F0C",
"*  c #57120C",
"=  c #561C16",
"-  c #7D1710",
";  c #502412",
":  c #642F17",
">  c #762114",
",  c #61301E",
"<  c #472C26",
"1  c #503A30",
"2  c #543F32",
"3  c #7A3E26",
"4  c #47471E",
"5  c #5A5E29",
"6  c #665526",
"7  c #6B4A3F",
"8  c #6E7433",
"9  c #797334",
"0  c #797E37",
"q  c #795448",
"w  c #7C5A48",
"e  c #6F6140",
"r  c #8E1C15",
"t  c #981C13",
"y  c #A21E15",
"u  c #81241D",
"i  c #AD231B",
"p  c #B22117",
"a  c #BE2318",
"s  c #992B23",
"d  c #A5332A",
"f  c #C32419",
"g  c #C6251A",
"h  c #C8251A",
"j  c #CD291F",
"k  c #D12A21",
"l  c #D22C23",
"z  c #D52D24",
"x  c #D92E25",
"c  c #DF3229",
"v  c #DC3A2F",
"b  c #E1332A",
"n  c #E7392E",
"m  c #EC3C30",
"M  c #EF3F33",
"N  c #CE4035",
"B  c #E9483C",
"V  c #EE493D",
"C  c #F44336",
"Z  c #F74537",
"A  c #F9483B",
"S  c #F8483C",
"D  c #FE4C3F",
"F  c #806C46",
"G  c #846F47",
"H  c #85684B",
"J  c #FF4F42",
"K  c #7F863B",
"L  c #79A23F",
"P  c #7BAF3F",
"I  c #7A8242",
"U  c #7D8043",
"Y  c #858D3E",
"T  c #84953F",
"R  c #998D4F",
"E  c #8F9842",
"W  c #939C44",
"Q  c #959E45",
"!  c #98A146",
"~  c #86BC46",
"^  c #A6B04D",
"/  c #AAA753",
"(  c #B4B657",
")  c #8DC34A",
"_  c #93C54C",
"`  c #9BC14C",
"'  c #AFCE55",
"]  c #B6C155",
"[  c #B9C556",
"{  c #B0C953",
"}  c #BECA58",
"|  c #BDD059",
" . c #C0C75A",
".. c #C1D15B",
"X. c #C5D05B",
"o. c #C2D65C",
"O. c #C8D45D",
/* pixels */
"O.O.O.O.O.O.O.O.O.O.O.O.O.O.O.O.O.O.O.O.O.O.O.O.O.O.O.O.O.O.O.O.",
"O.O.O.O.O.O.O.O.O.O...{ ( ( ( ( X.O.O.O.O.O.O.O.O.O.O.O.O.O.O.O.",
"O.O.O.O.O.O.O.O.O.O.{ P U w w H  .O.O.O.O.O.O.O.O.O.O.O.O.O.O.O.",
"O.O.O.O.O.O.O.O...' ` P I q q w R / O.O.O.O.O.O.O.O.O.O.O.O.O.O.",
"O.O.O.O.O.O.O.O.| ) ~ P I q q q 7 G X.O.O.O.O.O.O.O.O.O.O.O.O.O.",
"O.O.O.O.O.O.O.O.| ) ~ ~ L I e 7 7 G X.O.O.O.O.O.O.O.O.O.O.O.O.O.",
"O.O.O.O.O.O.O.O.| _ ) ~ P L e 7 7 F ] [ [ X.O.O.O.O.O.O.O.O.O.O.",
"O.O.O.O.O.O.O.O.X.o.T # # # 1 7 7 2 $ $ $ E O.O.O.O.O.O.O.O.O.O.",
"O.O.O.O.O.O.X.^ ^ ^ 9 + + + < 1 1 < + + + 9 ^ ^ ^ X.O.O.O.O.O.O.",
"O.O.O.O.O.O.} % o o = V V B &     & v v l = o o % } O.O.O.O.O.O.",
"O.O.O.O.O.! 0 , = = s J D S u * * u C m b - & & ; 0 ! O.O.O.O.O.",
"O.O.O.O.O.4 X N J J J J A C C C C C Z m b z j g t X 4 O.O.O.O.O.",
"O.O.O.! 5 3 s B J S A A Z C C C C C C m b z j g p - : 5 ! O.O.O.",
"O.O.O.8   d J J D Z C C C C C C C C C m b z j g f h -   8 O.O.O.",
"O.O.O.8   d J S Z C C C C C C C C C C m b z j j j g -   8 O.O.O.",
"O.O.O.8   d J Z C C C C C C C C C C C m b z k k j g -   8 O.O.O.",
"O.O.O.8   d J Z C C C C C C C C C C C m c c c l j g -   8 O.O.O.",
"O.O.O.8   d J Z C C C C C C C C C C Z m n b c l j g -   8 O.O.O.",
"O.O.O.8   s Z C C C C C C C C C C C Z C C n c l j g -   8 O.O.O.",
"O.O.O.8   s Z C C C C C C C C C C Z Z m m b c l j g -   8 O.O.O.",
"O.O.O.8   s Z C C C C C C C C C C C C m c b c l j g -   8 O.O.O.",
"O.O.O.8   s m n n n n n n n n n n n n c b x z k j g -   8 O.O.O.",
"O.O.O.8   r b c c c c c c c c c c c c c c z j j j g -   8 O.O.O.",
"O.O.O.8   r x l l l l l l l l l l l l l l k j g f h -   8 O.O.O.",
"O.O.O.K $ > i g j j j j j j j j j j j j j j j f a y > $ K O.O.O.",
"O.O.O.X.[ 4 O y h g g f f f g g g g f f f g g h y O 4 [ X.O.O.O.",
"O.O.O.O.O.0 4 > - - t f f a r - - r a f f t - - > 4 0 O.O.O.O.O.",
"O.O.O.O.O.O.[ $     & f f a @     @ a f f &     $ [ O.O.O.O.O.O.",
"O.O.O.O.O.O.X.K 8 8 6 * * * 6 8 8 6 * * * 6 8 8 K X.O.O.O.O.O.O.",
"O.O.O.O.O.O.O.O.O.O.Y . . o ! O.O.! o . . Y O.O.O.O.O.O.O.O.O.O.",
"O.O.O.O.O.O.O.O.O.O.] W W Q [ O.O.[ Q W W ] O.O.O.O.O.O.O.O.O.O.",
"O.O.O.O.O.O.O.O.O.O.O.O.O.O.O.O.O.O.O.O.O.O.O.O.O.O.O.O.O.O.O.O."
};
