/* XPM */
static char *_fb7d021845e45d9b0fee58e7efc7a8blEhSQI8kEErZtsrV[] = {
/* columns rows colors chars-per-pixel */
"32 32 211 2 ",
"   c #1E0D0A",
".  c #0E191F",
"X  c #1F1A18",
"o  c #221915",
"O  c #2C1B15",
"+  c #281B1A",
"@  c #331F19",
"#  c #22130C",
"$  c #25221D",
"%  c #2A251C",
"&  c #22281E",
"*  c #3A231D",
"=  c #1C1D25",
"-  c #1B1829",
";  c #191835",
":  c #2A1E22",
">  c #241B27",
",  c #311E25",
"<  c #21173A",
"1  c #1F2420",
"2  c #252523",
"3  c #2B2522",
"4  c #25292C",
"5  c #352A29",
"6  c #292531",
"7  c #282635",
"8  c #323639",
"9  c #402E2A",
"0  c #42372C",
"q  c #453D3A",
"w  c #564A3E",
"e  c #1B1746",
"r  c #192E49",
"t  c #1E2B5F",
"y  c #202A4D",
"u  c #332D49",
"i  c #262A5A",
"p  c #213B5C",
"a  c #363E51",
"s  c #26384C",
"d  c #1E327B",
"f  c #18306D",
"g  c #242866",
"h  c #233565",
"j  c #23357D",
"k  c #2C4F6D",
"l  c #244570",
"z  c #34466E",
"x  c #39607F",
"c  c #55545C",
"v  c #5E5752",
"b  c #524A45",
"n  c #696059",
"m  c #425462",
"M  c #435C72",
"N  c #4D636E",
"B  c #4E6E7D",
"V  c #7C7270",
"C  c #776F68",
"Z  c #857D75",
"A  c #8B847E",
"S  c #BEDB50",
"D  c #BCD55C",
"F  c #BFD277",
"G  c #BED966",
"H  c #C5CF5A",
"J  c #CCCF58",
"K  c #C4D655",
"L  c #CFD153",
"P  c #C3D954",
"I  c #C6D55C",
"U  c #CBD35D",
"Y  c #C8DA5C",
"T  c #D3D259",
"R  c #CDCF63",
"E  c #C6CF6B",
"W  c #C9CE6B",
"Q  c #D1CC6A",
"!  c #D0CD66",
"~  c #C5D463",
"^  c #CCD362",
"/  c #C4D16B",
"(  c #C9D26A",
")  c #C8D963",
"_  c #C6CE75",
"`  c #CACD75",
"'  c #C5CF79",
"]  c #CCCE79",
"[  c #C2D273",
"{  c #CBD272",
"}  c #C3D27A",
"|  c #202E87",
" . c #203F99",
".. c #263588",
"X. c #1B33A1",
"o. c #18419D",
"O. c #284B96",
"+. c #1A40A1",
"@. c #1849B7",
"#. c #1F50B7",
"$. c #235BAE",
"%. c #254CB3",
"&. c #1765BA",
"*. c #3567A8",
"=. c #2867BE",
"-. c #3261B3",
";. c #637689",
":. c #7C7B83",
">. c #507FAD",
",. c #1E5FC7",
"<. c #1C7CC6",
"1. c #296ECB",
"2. c #2C7FC3",
"3. c #377CC8",
"4. c #3C8ED8",
"5. c #3D93E0",
"6. c #488BC5",
"7. c #4787DA",
"8. c #4190DB",
"9. c #5B9CDA",
"0. c #5292D2",
"q. c #6D9ECF",
"w. c #689BCA",
"e. c #6499D4",
"r. c #4FA0CD",
"t. c #54A4D4",
"y. c #6EA5D3",
"u. c #559EE9",
"i. c #4EADEA",
"p. c #77BBF7",
"a. c #79B5E9",
"s. c #78C6EC",
"d. c #838089",
"f. c #969592",
"g. c #A39F9C",
"h. c #809CB4",
"j. c #AFA1A1",
"k. c #B2A6A5",
"l. c #BDBBAC",
"z. c #B7B7BA",
"x. c #C5CE84",
"c. c #CACB85",
"v. c #CBCD8B",
"b. c #C6CF8C",
"n. c #C5D284",
"m. c #C3D28A",
"M. c #C8D087",
"N. c #BEBCC9",
"B. c #80BAE8",
"V. c #99C8DC",
"C. c #90C2E3",
"Z. c #86C8F2",
"A. c #93CDF3",
"S. c #ACD6F3",
"D. c #ACDAF6",
"F. c #B3DDFA",
"G. c #A2C7ED",
"H. c #9EE1FC",
"J. c #B8F5FF",
"K. c #CFCECC",
"L. c #DED9CE",
"P. c #D8D0CE",
"I. c #CBCFD8",
"U. c #C9D8DF",
"Y. c #E1DED7",
"T. c #F4FDCF",
"R. c #F8FBCE",
"E. c #EDFFDD",
"W. c #F4FED4",
"Q. c #FCFCD4",
"!. c #F4FFDB",
"~. c #FBFDDB",
"^. c #C6DDE3",
"/. c #D5D7E1",
"(. c #DFFFEA",
"). c #C4EAFF",
"_. c #C4E9F9",
"`. c #D6EFFA",
"'. c #CAF5FF",
"]. c #D9F4FD",
"[. c #DCFDFF",
"{. c #DAF3FB",
"}. c #D0E6EC",
"|. c #EAEAE6",
" X c #E9FFE4",
".X c #EAF7EE",
"XX c #F4F4E5",
"oX c #FEF7E6",
"OX c #F6FDE3",
"+X c #FDFAE3",
"@X c #F4F5EE",
"#X c #FCF5ED",
"$X c #F5FBEB",
"%X c #FAFAEC",
"&X c #EDEEF4",
"*X c #ECEDFF",
"=X c #ECF4F4",
"-X c #EDFAF3",
";X c #E3F6FC",
":X c #EBF4F9",
">X c #E3FDFF",
",X c #EDFDFD",
"<X c #F4F4F3",
"1X c #FAF6F5",
"2X c #F5FAF4",
"3X c #FAFAF4",
"4X c #F5F5FC",
"5X c #FAF6FB",
"6X c #F4FAFB",
"7X c #FCFBFC",
"8X c #F9EFF7",
/* pixels */
"^ ^ ~ I I I U U U U ~ ~ ~ ~ U U U ) ~ D ^ ^ R ^ ~ I I U U T U U ",
"^ ^ ~ I I I U U U U I ~ ~ ~ ^ J I I I ) ~ H ^ ^ ~ I I I U U U U ",
"~ ~ ~ ~ I ~ U U U U U U K K U H T J I K K ) ) H ~ ~ ~ ~ ~ I ~ I ",
"_ [ } } } _ _ ` ] ] { / / [ } n._ ` { E E / [ [ _ ' ' } F F } [ ",
"~.~.~.~.~.~.~.~.+X+XQ.W.W.E.(..X$XOX~.Q.~.Q.W.~.~.~.+XOX!.!.!.!.",
"3X1X1X1X1X2X2X4X4X5X3X2X-X}.S.F.'.[.6X4X3X3X%X@X1X1X1X4X6X2X2X2X",
"3X1X5X5X5X2X6X6X4X7X4X,X>XD.a.p.s.H.[.6X&X<X3X3X5X5X5X5X4X4X6X6X",
"3X1X5X5X3X2X2X6X4X*X/.}.[.S.9.8.i.t.A.[.4X5X7X<X1X1X5X5X5X5X1X1X",
"5X1X5X1X2X$X$X2X&Xd.8 8 N x *.=.<.i.6.D.,X4X1X1X3X@X6X5X<X7X<X7X",
"<X7X1X1X%XXX$X%Xz.5 3 2 . r f $.&.5.6.Z.[.6X1X1X|.7X<X6X7X<X<X1X",
"4X4X4X1XXXXXl.Z 5 O O O 2 7 t O.o.=.3.w.).>X4X1X7X2X6X=X=X7X5X1X",
"7X&X4X7X3Xl.0 w 9 @ * @ o > ; g ..O.*.>.S.{.4X1X3X2X=X6X6X1X<X7X",
"4X4X5X&X3XY.n b 9   O #   : - < e g h p M ;.z.<X5X<X2X.X|.7X1X1X",
"<X<X5X7X<X3XP.k.j.k.C X + o : - ; ; ; ; - = 8 c K.7X1Xf.f.1X5X5X",
"7X7X@X<X6X5X5X5X5X8Xz.4 2 1 3 3 1 2 : 5 , : X 2 b f.v 3 g.3X7X<X",
"1X<X3X3X5X1X4X5X4X5XI.4 4 2 $ % & 2 : , @ 3 + 2 $ o 5 V |.2X2X2X",
"5X5X1X1X3X2X6X6X4X7XN.7 > : 3 5 6 - u u 6 3 $ % % V L.3X<X6X2X.X",
"5X5X1X1X3X3X2X6X:X7X/.c 6 > = 7 e i h z a = 3 % v L.3X@X6X&X2X3X",
"5X5X3X3X3X1X1X3X7X:XU.m s r y i g j O.q.;.7 5 q z.7X5X1X7X4X7X8X",
"2X2X2X2X1X1X5X1X6X=X^.B k l f d |  .3.9.h.:.Z A =X:X5X5X1X4X5X5X",
"2X2X6X4X5X5X5X5X<X6X>XF.w.e.-.+.X.%.4.r.].1X#X%X-X:X7X1X<X2X<X7X",
"2X2X6X4X4X5X5X5X5X:X{.).q.0.7.@.@.#.2.Z.,X7XXX%X,X,X1X1X6X3X2X1X",
"%X3X2X4X4X4X4X6X2X6X6X>XG.6.u.1.,.1.0.J.`.2X3X3X-X2X1X7X1X@X3X3X",
"%X%X3X6X4X6X6X2X@X7X=X6X].y.p.u.3.7.B.'.{.-X6X2X2X2X3X<X5X7X<X1X",
"#X#X1X2X2X2X2X2X%X1X1X5X,X).C.y.9.e.G.;X6X6X5X4X1X1X1X1X1X1X1X1X",
"oXoXoX%X$X$XOXOX+XoXoX%X6X,X]._.V.V.^.=X@X@X3X#X%XoX$X$X%X%X%X%X",
"Q.Q.Q.Q.W.Q.Q.Q.Q.Q.R.T.W.!.!.!. X X!.~.Q.Q.Q.Q.Q.Q.W.W.T.W.W.W.",
"v.b.b.b.v.v.v.v.c.c.n.n.n.x.c.c.x.m.n.x.c.c.c.c.c.M.m.n.n.n.m.m.",
"W E / / / W W W W ( ~ ~ ~ ~ ^ ^ ~ ~ ~ ~ { ( ( ( ~ ~ E W ~ ~ E / ",
"U U U U ~ ^ U U ^ U K K K I I U Y Y K U ^ ~ I K P U ^ ^ ^ U U U ",
"K K I U ^ U U I I K I ^ ^ ~ ~ ~ ^ I L L ^ / ~ Y S P ^ ! ! ^ K P ",
"K K U U ^ ^ ~ I I K U ^ ^ ~ ~ / ( U T T R ( G D S P ^ Q ! ^ K S "
};
