/* XPM */
static char *Player__1_1698082878[] = {
/* columns rows colors chars-per-pixel */
"32 32 53 1 ",
"  c #1B1513",
". c #211A18",
"X c #251F18",
"o c #261E1C",
"O c #2C261B",
"+ c #28201E",
"@ c #2A211F",
"# c #2C221F",
"$ c #2C2919",
"% c #3E2716",
"& c #33281A",
"* c #3D2A1E",
"= c #32301D",
"- c #37351E",
"; c #2B2220",
": c #312520",
"> c #412F18",
", c #472D1C",
"< c #4E321F",
"1 c #412E22",
"2 c #453321",
"3 c #4D3D23",
"4 c #424124",
"5 c #594D28",
"6 c #4F5027",
"7 c #575B2A",
"8 c #5E5829",
"9 c #5A5D2C",
"0 c #6D4427",
"q c #645A2B",
"w c #70592C",
"e c #62662F",
"r c #696830",
"t c #6D6A30",
"y c #6C7034",
"u c #717033",
"i c #747636",
"p c #787C38",
"a c #7B833A",
"s c #868D3F",
"d c #8B903F",
"f c #8D9442",
"g c #929944",
"h c #959C44",
"j c #98A147",
"k c #9EA649",
"l c #A6B04E",
"z c #AEB851",
"x c #B2BC52",
"c c #BCC757",
"v c #C3CF5A",
"b c #C5D15B",
"n c #C8D45D",
/* pixels */
"nnnnnnnnnnnnnnnnnnnnnnnnnnnnnnnn",
"nnnnnnnnnnnnnnnnnnnnnnnnnnnnnnnn",
"nnnnnnnnnnnnnnnnnnnnnnnnnnnnnnnn",
"nnnnnnnnnnnnnnnnnnnnnnnnnnnnnnnn",
"nnnnnnnnnnnnnnnnnnnnnnnnnnnnnnnn",
"nnnnnnnnnnnnnnnnnnnnnnnnnnnnnnnn",
"nnnnnnnnnnnnnnnnnnnnnnnnnnnnnnnn",
"nnnnnnnnnbxxnnnnnnnnnnnnnnnnnnnn",
"nnnnnnnnvy$=9pcnnnnnnnnnnnnnnnnn",
"nnnnnnnng&#oooynnnnnnnnnnnnnnnnn",
"nnnnnvhu=.@o.@6bnnnnnnnnnnnnnnnn",
"nnnnnk>01@@@ @Ofnnnnnnnnnnnnnnnn",
"nnnnnzw0*.o. ..-slfeeehvnnnvcnnn",
"nnnnnnzdss7 @..oXOXoooO6lnvpannn",
"nnnnnnnnnnjO@;#;;@;;;;@@4a6Xsnnn",
"nnnnnnnnnnc-;;;;;;;;;;;@o $ecnnn",
"nnnnnnnnnnc3@;:12-22:;;;;txbnnnn",
"nnnnnnnnnnbiooOqdxhu3o;;5znnnnnn",
"nnnnnnnnnnnt<,8vnnnnp%,2knnnnnnn",
"nnnnnnnnnnvptrdnnnnngrticnnnnnnn",
"nnnnnnnnnnnnnnnnnnnnnnnnnnnnnnnn",
"nnnnnnnnnnnnnnnnnnnnnnnnnnnnnnnn",
"nnnnnnnnnnnnnnnnnnnnnnnnnnnnnnnn",
"nnnnnnnnnnnnnnnnnnnnnnnnnnnnnnnn",
"nnnnnnnnnnnnnnnnnnnnnnnnnnnnnnnn",
"nnnnnnnnnnnnnnnnnnnnnnnnnnnnnnnn",
"nnnnnnnnnnnnnnnnnnnnnnnnnnnnnnnn",
"nnnnnnnnnnnnnnnnnnnnnnnnnnnnnnnn",
"nnnnnnnnnnnnnnnnnnnnnnnnnnnnnnnn",
"nnnnnnnnnnnnnnnnnnnnnnnnnnnnnnnn",
"nnnnnnnnnnnnnnnnnnnnnnnnnnnnnnnn",
"nnnnnnnnnnnnnnnnnnnnnnnnnnnnnnnn"
};
