/* XPM */
static char *_f49f48fded3495af20e44b08f6eab3aWDfACiRU5LTzNV5t[] = {
/* columns rows colors chars-per-pixel */
"32 32 154 2 ",
"   c #7E5A4A",
".  c #8E3733",
"X  c #8C3A35",
"o  c #8C3E3A",
"O  c #943735",
"+  c #983537",
"@  c #933A36",
"#  c #9A3837",
"$  c #9E373A",
"%  c #943C3A",
"&  c #9A3C3B",
"*  c #A3363B",
"=  c #A23A3D",
"-  c #85453D",
";  c #8C433E",
":  c #894A3E",
">  c #93433D",
",  c #9B413E",
"<  c #9E3E40",
"1  c #A43E41",
"2  c #AA3B41",
"3  c #874640",
"4  c #8D4541",
"5  c #8D4C42",
"6  c #934542",
"7  c #9C4342",
"8  c #934A45",
"9  c #9A4A44",
"0  c #9D4748",
"q  c #954D49",
"w  c #9C4D4A",
"e  c #875746",
"r  c #8D5144",
"t  c #8C554A",
"y  c #8B594D",
"u  c #935146",
"i  c #94534B",
"p  c #9C514C",
"a  c #905A4E",
"s  c #8F5F53",
"d  c #975650",
"f  c #9A5650",
"g  c #945C51",
"h  c #9C5953",
"j  c #A34343",
"k  c #A54D4B",
"l  c #AA4F4C",
"z  c #A4544E",
"x  c #AB524E",
"c  c #A55651",
"v  c #AC5552",
"b  c #A25D52",
"n  c #AC5A55",
"m  c #AD5D58",
"M  c #B25454",
"N  c #B85655",
"B  c #B15956",
"V  c #B55758",
"C  c #BA5559",
"Z  c #B35C59",
"A  c #916155",
"S  c #9E6456",
"D  c #A46256",
"F  c #A6665B",
"G  c #AC655D",
"H  c #A7695C",
"J  c #AB6B5E",
"K  c #B4625D",
"L  c #B8645E",
"P  c #AE6761",
"I  c #AF6E63",
"U  c #B56561",
"Y  c #B46C64",
"T  c #B96962",
"R  c #DD9D95",
"E  c #E59793",
"W  c #E19C96",
"Q  c #E99B97",
"!  c #E59E99",
"~  c #EC9D9B",
"^  c #F19B9C",
"/  c #CFA899",
"(  c #DDA195",
")  c #D6A499",
"_  c #DDA49A",
"`  c #D4AA9A",
"'  c #DCAA9D",
"]  c #E3A296",
"[  c #E4A49C",
"{  c #EAA09D",
"}  c #E9A29C",
"|  c #EBA29C",
" . c #E9A29E",
".. c #ECA19C",
"X. c #EEA09C",
"o. c #ECA29F",
"O. c #E9A59C",
"+. c #EDA49E",
"@. c #EEA59F",
"#. c #EBA29D",
"$. c #E3A89A",
"%. c #E4AA9C",
"&. c #E3A99E",
"*. c #E9A99D",
"=. c #EAA89C",
"-. c #EEA89E",
";. c #EDAB9F",
":. c #EFAD9F",
">. c #EAA99E",
",. c #F0A09F",
"<. c #F2A49E",
"1. c #DEACA1",
"2. c #DCAEA1",
"3. c #DFADA2",
"4. c #E6A7A0",
"5. c #EAA5A0",
"6. c #EBA6A1",
"7. c #EDA6A2",
"8. c #EBA5A1",
"9. c #E1AFA4",
"0. c #E4AAA1",
"q. c #E8A9A0",
"w. c #E9AEA0",
"e. c #ECACA0",
"r. c #EDAAA4",
"t. c #E9AEA6",
"y. c #EFACA4",
"u. c #EDADA4",
"i. c #F1A6A2",
"p. c #F0AEA2",
"a. c #F2AEA3",
"s. c #F2AFA7",
"d. c #F1ACA4",
"f. c #E6B5A7",
"g. c #E4B1A5",
"h. c #EBB1A6",
"j. c #EDB1A6",
"k. c #E9B3A9",
"l. c #EEB2AA",
"z. c #EFB5AC",
"x. c #E1BBAA",
"c. c #ECB8AD",
"v. c #F1B1A5",
"b. c #F1B0A4",
"n. c #F4B1AB",
"m. c #F6B3AB",
"M. c #F0B6AB",
"N. c #F0B5AD",
"B. c #F3B4AC",
"V. c #FAB7AF",
"C. c #FBB3AE",
"Z. c #F1B8AF",
"A. c #F3B8B0",
"S. c #FBBAB4",
/* pixels */
"= = 2 + i R 0 $ 2 * = 7 W i & = = % q E k $ 2 = & w W p & = 2 * ",
"7 j 1 & u ( p & < j < 7 y.i 7 < 7 % i O.0 & & j 7 6 [ i 7 & 1 1 ",
"4 6 0 6 g f.5 5 4 8 6 w _ t 4 6 6 6 a [ f 6 q ; 8 q t.g 4 8 6 7 ",
"q.! ~ Q *.h.[ ] $.] X.~ V.q.] [ }  .[ n. .[ ( ] X.~ d.$._ $.X.~ ",
"S ;.K v x z v K ;.D x N k c F *.m v l x n m v.J l M v z H e.K l ",
"e ( 9 % & % @ 9 *.: @ & O o 5 %.9 % 7 @ @ > e.5 @ & @ X : %.9 % ",
"  2.i 6 4 8 6 p [ a 4 6 w 4 y ' i ; 8 q 4 q 9.A 4 6 z 4 t 2.f 4 ",
"2.k.7.E r.} ~ ,.n.[ 4.}  . ._ N.5.! 4.] X.+.l.[ [ *.~ +._ c.5.} ",
"c z x L ;.F x M x c D a.K k B x l K a.F x x v z b :.K x x z v n ",
"% , # 7 [ 5 % % & o u ] 9 @ & = @ > ( r % & & @ : ] w @ & @ % @ ",
"4 8 % k _ t 3 6 6 4 a [ p 6 6 6 6 i g.t ; 6 6 8 t ' h ; w 8 ; 8 ",
"_ } ^ ~ S.&.[ ]  .~  .m. . .R } ! [ l.[ }  .~ ! [ N.! ! } ! ~ ~ ",
"h.G M C v c P i.K M M M V Z d.Y n Z n c G i.U n v v Z K +.Y v V ",
"g.5 % & % X 5 [ 9 O 1 O % > *.: X & @ > u [ > @ 7 @ @ > O.8 @ & ",
"2.y 3 6 q - y ' a ; 7 0 4 r g.g > > w - t ' i ; o 8 8 8 [ g - 8 ",
"Z._ [ *.! [ 0.c.*.} ~ Q  .*.z._  .X.! *._ N. .} O.[ }  .M.$.$._ ",
"c c F d.K v Z z c G d.G v v B v G a.G n M M V Z *.I v B v n G j.",
"% X 8 ] 6 @ & , % ; ( r > & < % 5 $.8 % $ * $ > $.r o @ & X 5 %.",
"6 4 a %.f ; q 4 ; 8 t.a - 8 ; ; t ' d - 8 9 > q 0.y 4 8 4 5 a &.",
"Q X.[ V.} [ R ] X.} n.$._ *.+.} *.B.[ R *.W ,.~ y.&.%.R +.! W m.",
"v B x v v K a.G x M v z F *.K x v z B K e.I x N v z b a.L n z n ",
"% % , O @ 9 [ : % & O @ 5 [ 9 & 7 @ . > %.5 . & O > 5 [ w X % @ ",
"8 4 6 w 6 p ' g 4 ; w 4 t 1.i ; o q 8 i ' A 4 6 9 4 t _ i 8 8 5 ",
"~ 7.} [ X.i.y.0.[ O.~ 7.] A.7.} 5.} i.} c.' 5. .i. .0.m.i. .[ 0.",
"M L v.F v M B c J v.L B B v m K ;.Y v V n n G <.T v B v M Z a.J ",
"% > ( r > & & @ r [ 9 @ % % % > [ u @ @ , X > | p X @ & & , ] r ",
"4 u g.y - 6 ; 4 y ' d ; 6 8 ; i 0.t - 8 ; 4 i } q 6 q 4 6 8 _ s ",
"! } z.' *. .~ ! [ N.*.W *.! X. .B.0.0.R 7.~ ! C.d.! W 5.W  .l._ ",
"Z Z n c G d.U m c c K U d.Y v V Z c D y.U n M V M K d.G n n n Z ",
"@ % . ; u [ 6 X 7 % @ > O.8 @ % @ > 5 [ q . & & % > *.u ; % @ & ",
"7 6 w : y ' i 4 o 8 4 i _ g 4 8 8 - t ' u 8 9 6 6 i ' e 5 > 9 > ",
"~ ~ W [ / x.[ ! 5.W [ _ c.) _ _ ! R ' f.$.W ! ! R ) x.` [ X.E ~ "
};
